<svg width="48" height="49" viewBox="0 0 48 49" fill="none" xmlns="http://www.w3.org/2000/svg">
<g clip-path="url(#clip0_71_2120)">
<g clip-path="url(#clip1_71_2120)">
<path d="M14 49V38H19V32.5H14V21.5H19V16H14V5H27V16H22V21.5H27V25.5H35V21.5H48V32.5H35V28.5H27V32.5H22V38H27V49H14ZM17 46H24V41H17V46ZM17 29.5H24V24.5H17V29.5ZM38 29.5H45V24.5H38V29.5ZM17 13H24V8H17V13Z" fill="#0669F2"/>
</g>
</g>
<defs>
<clipPath id="clip0_71_2120">
<rect width="48" height="48" fill="white" transform="translate(0 0.510742)"/>
</clipPath>
<clipPath id="clip1_71_2120">
<rect width="48" height="48" fill="white" transform="translate(0 0.510742)"/>
</clipPath>
</defs>
</svg>
